<svg width="24" height="24" viewBox="0 0 24 24" fill="none" xmlns="http://www.w3.org/2000/svg">
  <circle cx="12" cy="12" r="3" stroke="currentColor" stroke-width="1"/>
  <path d="M19.4 15A1.65 1.65 0 0 0 21 13.5A1.65 1.65 0 0 0 19.4 12" stroke="currentColor" stroke-width="1" stroke-linecap="round" stroke-linejoin="round"/>
  <path d="M4.6 15A1.65 1.65 0 0 1 3 13.5A1.65 1.65 0 0 1 4.6 12" stroke="currentColor" stroke-width="1" stroke-linecap="round" stroke-linejoin="round"/>
  <path d="M12 9A1.65 1.65 0 0 0 13.5 7.4A1.65 1.65 0 0 0 12 6A1.65 1.65 0 0 0 10.5 7.4A1.65 1.65 0 0 0 12 9" stroke="currentColor" stroke-width="1" stroke-linecap="round" stroke-linejoin="round"/>
  <path d="M12 15A1.65 1.65 0 0 1 10.5 16.6A1.65 1.65 0 0 1 12 18A1.65 1.65 0 0 1 13.5 16.6A1.65 1.65 0 0 1 12 15" stroke="currentColor" stroke-width="1" stroke-linecap="round" stroke-linejoin="round"/>
</svg>